<svg width="16" height="16" viewBox="0 0 16 16" fill="none" xmlns="http://www.w3.org/2000/svg">
<path d="M15.4811 3.48747C16.0668 2.90181 16.0668 1.95069 15.4811 1.36503C14.8955 0.779366 13.9443 0.779366 13.3587 1.36503L8.42505 6.30334L3.48674 1.36971C2.90108 0.784051 1.94996 0.784051 1.3643 1.36971C0.778633 1.95538 0.778633 2.90649 1.3643 3.49216L6.30261 8.42578L1.36898 13.3641C0.783319 13.9498 0.783319 14.9009 1.36898 15.4865C1.95464 16.0722 2.90576 16.0722 3.49142 15.4865L8.42505 10.5482L13.3634 15.4818C13.949 16.0675 14.9001 16.0675 15.4858 15.4818C16.0715 14.8962 16.0715 13.9451 15.4858 13.3594L10.5475 8.42578L15.4811 3.48747Z" fill="black"/>
</svg>
