<svg width="15" height="16" viewBox="0 0 15 16" fill="none" xmlns="http://www.w3.org/2000/svg">
<g clip-path="url(#clip0_1143_11)">
<path d="M7.5 3.5C8.32843 3.5 9 2.82843 9 2C9 1.17157 8.32843 0.5 7.5 0.5C6.67157 0.5 6 1.17157 6 2C6 2.82843 6.67157 3.5 7.5 3.5Z" fill="#1E1E1E"/>
<path d="M7.5 9.5C8.32843 9.5 9 8.82843 9 8C9 7.17157 8.32843 6.5 7.5 6.5C6.67157 6.5 6 7.17157 6 8C6 8.82843 6.67157 9.5 7.5 9.5Z" fill="#1E1E1E"/>
<path d="M7.5 15.5C8.32843 15.5 9 14.8284 9 14C9 13.1716 8.32843 12.5 7.5 12.5C6.67157 12.5 6 13.1716 6 14C6 14.8284 6.67157 15.5 7.5 15.5Z" fill="#1E1E1E"/>
</g>
<defs>
<clipPath id="clip0_1143_11">
<rect width="3" height="16" fill="white" transform="translate(6)"/>
</clipPath>
</defs>
</svg>
